<?xml version="1.0" standalone="no"?>
<!DOCTYPE svg PUBLIC "-//W3C//DTD SVG 20010904//EN"
 "http://www.w3.org/TR/2001/REC-SVG-20010904/DTD/svg10.dtd">
<svg version="1.0" xmlns="http://www.w3.org/2000/svg"
 width="700.000000pt" height="700.000000pt" viewBox="0 0 700.000000 700.000000"
 preserveAspectRatio="xMidYMid meet">
<metadata>
Created by potrace 1.14, written by Peter Selinger 2001-2017
</metadata>
<g transform="translate(0.000000,700.000000) scale(0.100000,-0.100000)"
fill="#000000" stroke="none">
<path d="M3305 6344 c-344 -34 -593 -92 -865 -201 -876 -351 -1529 -1128
-1724 -2050 -44 -206 -59 -359 -59 -593 0 -457 90 -846 288 -1255 136 -281
305 -515 545 -756 447 -449 993 -722 1635 -816 151 -22 558 -25 715 -5 1321
167 2341 1192 2495 2508 19 167 19 481 0 648 -139 1189 -997 2162 -2158 2445
-205 50 -378 71 -617 75 -118 2 -233 2 -255 0z m594 -373 c328 -56 626 -166
895 -329 942 -573 1401 -1677 1140 -2741 -77 -314 -229 -632 -428 -899 -420
-561 -1063 -924 -1759 -992 -236 -23 -550 -5 -782 45 -505 110 -1019 416
-1343 798 -334 394 -528 818 -599 1312 -23 165 -23 505 0 670 98 683 454 1278
1010 1687 320 235 723 399 1110 452 62 9 126 18 142 20 17 2 134 3 260 1 176
-2 259 -8 354 -24z"/>
<path d="M3968 5594 c-61 -33 -58 37 -58 -1237 l0 -1165 -82 54 c-196 129
-471 189 -750 164 -641 -59 -1168 -501 -1168 -979 0 -388 332 -676 831 -722
533 -49 1114 241 1324 660 77 154 75 133 75 963 l0 739 58 27 c133 62 262 23
407 -122 133 -133 252 -336 321 -546 23 -73 28 -105 30 -220 3 -113 6 -139 22
-160 43 -57 121 -64 173 -14 36 35 139 242 177 359 150 457 26 862 -393 1280
-66 66 -212 199 -325 296 -336 289 -425 388 -462 517 -15 53 -30 80 -50 98
-34 28 -88 31 -130 8z m232 -570 c25 -25 140 -128 255 -227 335 -290 446 -404
550 -565 111 -173 149 -309 143 -507 -7 -176 -12 -186 -54 -85 -81 199 -193
371 -329 505 -95 94 -162 140 -267 183 -79 32 -225 41 -305 19 l-53 -14 0 368
c0 203 4 369 8 369 4 0 28 -21 52 -46z"/>
<path d="M2585 4594 c-343 -61 -628 -251 -807 -541 -53 -85 -59 -120 -28 -170
24 -39 50 -54 99 -55 53 -1 76 17 128 102 116 184 305 331 513 398 114 37 182
45 327 39 157 -6 230 -23 375 -88 83 -38 94 -40 128 -30 57 17 85 53 85 111 0
62 -26 92 -121 136 -217 101 -475 138 -699 98z"/>
<path d="M2650 4165 c-207 -44 -385 -154 -504 -308 -63 -82 -90 -139 -81 -170
19 -67 56 -97 120 -97 51 0 67 11 118 83 183 256 493 338 776 207 87 -41 133
-40 177 4 40 40 46 92 14 143 -23 38 -126 91 -240 123 -97 28 -288 35 -380 15z"/>
</g>
</svg>
